<svg width="762.319970703125px" height="348.83999023437497px" xmlns="http://www.w3.org/2000/svg" viewBox="-131.1599853515625 -99.41999511718748 762.319970703125 348.83999023437497" style="background: rgba(0, 0, 0, 0) none repeat scroll 0% 0%;" preserveAspectRatio="xMidYMid"><defs><filter id="editing-hole" x="-100%" y="-100%" width="300%" height="300%"><feFlood flood-color="#000000" result="black"></feFlood><feMorphology operator="dilate" radius="2" in="SourceGraphic" result="erode"></feMorphology><feGaussianBlur in="erode" stdDeviation="4" result="blur"></feGaussianBlur><feOffset in="blur" dx="2" dy="2" result="offset"></feOffset><feComposite operator="atop" in="offset" in2="black" result="merge"></feComposite><feComposite operator="in" in="merge" in2="SourceGraphic" result="inner-shadow"></feComposite></filter></defs><g filter="url(#editing-hole)"><g transform="translate(-23.000017166137695, 145.0199966430664)"><path d="M17.97 0L17.97-140.04L120.02-140.04L120.02-120.02L37.99-120.02L37.99-79.98L108.01-79.98L108.01-59.96L37.99-59.96L37.99-20.02L120.02-20.02L120.02 0L17.97 0ZM215.43-104.00L238.67-104.00L200.88-53.22L240.43 0L217.19 0L189.26-37.60L161.23 0L137.99 0L177.64-53.22L139.84-104.00L162.99-104.00L189.26-68.85L215.43-104.00ZM262.40-19.24L262.40-45.41L262.40-45.41Q262.40-49.41 263.92-52.88L263.92-52.88L263.92-52.88Q265.43-56.35 268.02-58.98L268.02-58.98L268.02-58.98Q270.61-61.62 274.12-63.13L274.12-63.13L274.12-63.13Q277.64-64.65 281.54-64.65L281.54-64.65L331.15-64.65L331.15-84.77L268.36-84.77L268.36-104.00L331.15-104.00L331.15-104.00Q335.16-104.00 338.67-102.49L338.67-102.49L338.67-102.49Q342.19-100.98 344.78-98.39L344.78-98.39L344.78-98.39Q347.36-95.80 348.88-92.29L348.88-92.29L348.88-92.29Q350.39-88.77 350.39-84.77L350.39-84.77L350.39 0L331.15 0L331.15-17.58L331.15-17.58Q330.86-13.96 329.20-10.74L329.20-10.74L329.20-10.74Q327.54-7.52 324.95-5.13L324.95-5.13L324.95-5.13Q322.36-2.73 319.04-1.37L319.04-1.37L319.04-1.37Q315.72 0 312.01 0L312.01 0L281.54 0L281.54 0Q277.64 0 274.12-1.51L274.12-1.51L274.12-1.51Q270.61-3.03 268.02-5.62L268.02-5.62L268.02-5.62Q265.43-8.20 263.92-11.72L263.92-11.72L263.92-11.72Q262.40-15.23 262.40-19.24L262.40-19.24ZM281.54-45.41L281.54-19.24L331.15-19.24L331.15-45.41L281.54-45.41ZM508.79-84.77L464.84-84.77L464.84 0L445.61 0L445.61-84.77L401.56-84.77L401.56 0L382.42 0L382.42-104.00L401.56-104.00L401.56-85.64L401.56-85.64Q401.76-89.45 403.32-92.82L403.32-92.82L403.32-92.82Q404.88-96.19 407.47-98.68L407.47-98.68L407.47-98.68Q410.06-101.17 413.48-102.59L413.48-102.59L413.48-102.59Q416.89-104.00 420.80-104.00L420.80-104.00L445.61-104.00L445.61-104.00Q449.41-104.00 452.83-102.59L452.83-102.59L452.83-102.59Q456.25-101.17 458.89-98.68L458.89-98.68L458.89-98.68Q461.52-96.19 463.13-92.82L463.13-92.82L463.13-92.82Q464.75-89.45 464.84-85.64L464.84-85.64L464.84-85.64Q465.04-89.45 466.55-92.82L466.55-92.82L466.55-92.82Q468.07-96.19 470.65-98.68L470.65-98.68L470.65-98.68Q473.24-101.17 476.66-102.59L476.66-102.59L476.66-102.59Q480.08-104.00 483.98-104.00L483.98-104.00L508.79-104.00L508.79-104.00Q512.79-104.00 516.31-102.49L516.31-102.49L516.31-102.49Q519.82-100.98 522.41-98.39L522.41-98.39L522.41-98.39Q525-95.80 526.51-92.29L526.51-92.29L526.51-92.29Q528.03-88.77 528.03-84.77L528.03-84.77L528.03 0L508.79 0L508.79-84.77Z" fill="#cccccc"></path></g></g><style>text {
  font-size: 64px;
  font-family: Arial Black;
  dominant-baseline: central;
  text-anchor: middle;
}</style></svg>